<?xml version="1.0" standalone="no"?>
<!DOCTYPE svg PUBLIC "-//W3C//DTD SVG 20010904//EN"
 "http://www.w3.org/TR/2001/REC-SVG-20010904/DTD/svg10.dtd">
<svg version="1.0" xmlns="http://www.w3.org/2000/svg"
 width="1280.000000pt" height="1024.000000pt" viewBox="0 0 1280.000000 1024.000000"
 preserveAspectRatio="xMidYMid meet">
<metadata>
Created by potrace 1.16, written by Peter Selinger 2001-2019
</metadata>
<g transform="translate(0.000000,1024.000000) scale(0.100000,-0.100000)"
fill="#000000" stroke="none">
<path d="M5953 4063 c-10 -3 -13 -50 -13 -184 0 -177 0 -180 20 -169 17 9 20
21 20 85 l0 75 59 0 c55 0 71 8 71 36 0 2 -29 4 -65 4 l-66 0 3 58 3 57 55 3
c49 3 69 13 70 35 0 8 -137 8 -157 0z"/>
<path d="M6210 3952 c-24 -19 -25 -26 -25 -117 0 -117 7 -125 101 -125 84 0
94 14 94 130 0 110 -8 122 -86 128 -49 3 -64 0 -84 -16z m118 -34 c14 -14 16
-136 3 -156 -5 -9 -24 -12 -52 -10 l-44 3 -3 74 c-2 41 -1 80 2 88 7 16 77 18
94 1z"/>
</g>
</svg>
